<?xml version="1.0" standalone="no"?>
<!DOCTYPE svg PUBLIC "-//W3C//DTD SVG 20010904//EN"
 "http://www.w3.org/TR/2001/REC-SVG-20010904/DTD/svg10.dtd">
<svg version="1.0" xmlns="http://www.w3.org/2000/svg"
 width="328.000000pt" height="328.000000pt" viewBox="0 0 328.000000 328.000000"
 preserveAspectRatio="xMidYMid meet">
<metadata>
Created by potrace 1.14, written by Peter Selinger 2001-2017
</metadata>
<g transform="translate(0.000000,328.000000) scale(0.100000,-0.100000)"
fill="#000000" stroke="none">
<path d="M610 2305 c0 -250 4 -385 10 -385 6 0 10 130 10 370 l0 370 1005 0
1005 0 0 -370 c0 -240 4 -370 10 -370 6 0 10 135 10 385 l0 385 -1025 0 -1025
0 0 -385z"/>
<path d="M1615 2575 c-123 -27 -325 -122 -325 -152 0 -7 -6 -22 -12 -33 -9
-14 -10 -23 -3 -28 6 -4 12 -14 14 -22 11 -50 12 -49 -146 -130 -51 -27 -105
-62 -120 -81 -29 -33 -48 -79 -33 -79 4 0 13 -14 19 -31 7 -21 15 -29 26 -26
8 4 17 2 20 -3 5 -9 37 -6 54 4 5 3 31 8 57 10 63 6 124 16 149 24 25 8 17 6
100 20 138 22 297 33 336 21 15 -4 31 -4 35 0 5 3 34 4 64 1 l55 -5 -50 -8
c-154 -26 -363 -73 -455 -104 -243 -81 -269 -94 -284 -140 -5 -16 -2 -23 14
-28 11 -3 20 -11 20 -16 0 -6 -5 -7 -11 -3 -7 4 -9 -1 -7 -12 2 -11 11 -18 21
-18 14 2 16 -3 11 -20 -16 -53 -56 -141 -71 -158 -15 -17 -14 -18 23 -17 21 0
33 3 27 6 -14 5 -17 31 -7 57 11 27 59 20 73 -11 11 -23 10 -29 -5 -40 -15
-11 -10 -13 36 -13 45 0 51 2 37 13 -14 10 -81 157 -75 162 2 2 32 6 66 9 l64
7 -7 -30 c-7 -31 3 -45 60 -84 35 -25 31 -61 -8 -65 -23 -3 -30 2 -42 30 l-14
33 -1 -36 c0 -24 5 -36 15 -37 62 -7 79 -4 97 17 24 30 23 56 -4 83 -19 19
-19 21 -2 13 10 -4 34 -8 52 -8 31 0 32 -1 32 -43 0 -30 -5 -46 -17 -53 -14
-8 -7 -10 31 -11 39 0 47 3 38 12 -15 15 -16 58 -2 58 6 0 22 -12 35 -26 25
-27 110 -58 128 -47 12 8 133 6 159 -3 13 -4 16 -12 13 -27 -4 -14 1 -30 12
-42 10 -11 18 -24 19 -30 3 -23 17 -55 25 -55 4 0 11 -21 15 -47 3 -27 11 -54
17 -61 5 -7 7 -15 4 -19 -4 -3 -2 -13 3 -22 8 -15 24 -173 22 -213 0 -10 3
-18 9 -18 5 0 9 -9 9 -20 0 -14 7 -20 23 -20 21 -1 21 -1 3 -15 -17 -13 -15
-14 22 -11 59 4 117 69 82 91 -6 4 -8 11 -4 16 11 18 14 89 4 89 -5 0 -7 7 -4
15 3 8 2 20 -3 27 -4 7 -9 22 -10 33 -4 55 -32 188 -39 194 -5 3 -11 15 -12
26 -2 11 -15 41 -28 67 l-24 48 27 0 c20 0 24 3 14 9 -9 6 -11 20 -6 49 4 25
2 42 -4 47 -17 10 -13 62 5 80 9 9 14 19 10 22 -3 3 -1 13 6 20 9 11 9 16 0
22 -9 5 -4 18 18 46 21 27 28 44 24 59 -9 29 -25 47 -35 40 -5 -3 -9 -1 -9 5
0 15 12 20 53 23 21 1 37 5 37 9 0 6 44 11 112 12 15 0 26 5 25 11 -1 6 5 9
13 7 42 -11 128 18 115 38 -2 4 4 13 15 21 14 10 16 18 8 40 -10 31 -37 47
-88 55 -19 3 -62 12 -95 20 -33 7 -78 16 -100 20 -22 3 -47 8 -55 10 -8 2 -34
4 -57 4 -24 1 -43 6 -43 11 0 6 3 9 8 9 26 -4 52 4 80 27 36 30 42 65 14 92
-36 34 -115 97 -148 118 -19 11 -31 24 -27 27 3 4 -1 7 -10 7 -13 0 -17 9 -17
34 0 23 -6 36 -17 41 -36 14 -237 14 -298 0z m-5 -349 c0 -11 -19 -15 -25 -6
-3 5 1 10 9 10 9 0 16 -2 16 -4z m220 -8 c0 -4 -6 -8 -14 -8 -8 0 -17 4 -20 8
-2 4 4 8 15 8 10 0 19 -4 19 -8z m130 2 c0 -5 -8 -10 -17 -10 -15 0 -16 2 -3
10 19 12 20 12 20 0z m-483 -16 c-3 -3 -12 -4 -19 -1 -8 3 -5 6 6 6 11 1 17
-2 13 -5z m-288 -566 c1 -5 -8 -8 -19 -8 -23 0 -24 4 -8 33 11 21 11 21 19 2
4 -11 8 -23 8 -27z m381 3 c0 -6 -4 -13 -10 -16 -5 -3 -10 1 -10 9 0 9 5 16
10 16 6 0 10 -4 10 -9z"/>
<path d="M194 1735 c-43 -18 -64 -51 -64 -100 0 -76 57 -114 140 -93 32 8 40
15 40 34 0 13 8 28 18 33 13 8 4 10 -38 10 -42 0 -51 -2 -37 -10 21 -12 23
-48 2 -55 -28 -11 -62 5 -75 36 -25 60 7 140 56 140 23 0 31 -6 59 -45 14 -19
14 -18 15 17 0 29 -4 36 -17 36 -10 -1 -29 1 -43 5 -14 3 -39 0 -56 -8z"/>
<path d="M362 1728 c8 -7 27 -31 42 -53 28 -43 36 -119 14 -128 -7 -3 9 -6 35
-6 44 -1 47 0 33 15 -31 31 -11 98 47 162 l20 22 -39 -1 c-21 0 -33 -3 -26 -6
17 -7 15 -34 -6 -61 l-18 -23 -20 36 c-16 31 -17 37 -4 45 11 7 -1 10 -39 10
-46 0 -52 -2 -39 -12z"/>
<path d="M583 1729 c14 -8 17 -24 17 -89 0 -65 -3 -81 -17 -89 -15 -8 -11 -10
20 -11 35 0 37 1 23 16 -11 11 -16 34 -15 77 0 34 3 55 6 47 4 -8 19 -44 36
-80 l29 -65 33 70 33 70 1 -57 c1 -44 -3 -59 -16 -67 -14 -8 -5 -10 37 -10 42
0 51 2 38 10 -15 8 -18 24 -18 89 0 65 3 81 18 89 14 8 10 10 -20 11 -24 0
-38 -5 -38 -12 -1 -7 -13 -40 -28 -72 l-28 -59 -28 71 c-27 71 -28 72 -64 72
-30 -1 -34 -3 -19 -11z"/>
<path d="M863 1729 c24 -14 25 -150 1 -173 -14 -15 -12 -16 22 -16 33 0 36 2
20 13 -14 10 -16 25 -14 77 l3 64 60 -76 c33 -43 63 -77 68 -78 4 0 7 40 7 90
0 74 3 91 18 99 14 8 10 10 -21 11 -35 0 -37 -1 -23 -16 14 -14 24 -114 12
-114 -2 0 -28 29 -56 65 -44 56 -56 65 -83 65 -27 -1 -29 -2 -14 -11z"/>
<path d="M2208 1728 c7 -7 12 -42 12 -88 0 -46 -5 -81 -12 -88 -9 -9 7 -12 75
-12 l87 0 -1 38 c0 20 -3 30 -6 22 -16 -45 -64 -65 -91 -38 -7 7 -12 41 -12
85 0 58 3 74 18 82 13 8 6 10 -32 11 -39 0 -47 -3 -38 -12z"/>
<path d="M2403 1729 c14 -8 17 -24 17 -89 0 -65 -3 -81 -17 -89 -14 -8 -5 -10
37 -10 42 0 51 2 38 10 -15 8 -18 24 -18 89 0 65 3 81 18 89 13 8 4 10 -38 10
-42 0 -51 -2 -37 -10z"/>
<path d="M2528 1728 c17 -17 16 -175 0 -181 -7 -3 21 -6 63 -6 62 -1 81 3 102
19 31 25 41 62 27 106 -19 56 -52 74 -133 74 -55 0 -68 -3 -59 -12z m127 -23
c48 -47 25 -155 -33 -155 -33 0 -42 21 -42 102 0 77 0 78 25 78 14 0 37 -11
50 -25z"/>
<path d="M2773 1729 c14 -8 17 -24 17 -89 0 -65 -3 -81 -17 -89 -13 -8 7 -10
75 -11 l92 0 0 30 c0 17 -4 30 -10 30 -5 0 -10 -7 -10 -15 0 -20 -37 -38 -66
-31 -20 5 -24 12 -24 46 0 45 10 50 33 18 16 -22 16 -22 16 22 0 40 -1 43 -13
28 -22 -30 -36 -21 -36 22 0 36 3 40 25 40 14 0 34 -9 45 -20 l20 -20 0 25 c0
25 -1 25 -82 25 -61 -1 -78 -3 -65 -11z"/>
<path d="M2973 1729 c14 -8 17 -24 17 -89 0 -65 -3 -81 -17 -89 -14 -8 -5 -10
37 -10 42 0 51 2 38 10 -12 6 -18 22 -18 45 0 47 19 41 45 -14 16 -35 24 -42
49 -42 27 0 28 1 14 18 -9 9 -23 31 -32 48 -14 28 -14 33 -1 44 20 16 19 54
-1 74 -11 12 -35 16 -82 16 -50 -1 -63 -3 -49 -11z m97 -14 c17 -20 5 -61 -20
-68 -18 -5 -20 0 -20 39 0 46 16 58 40 29z"/>
<path d="M610 980 l0 -390 1025 0 1025 0 0 390 c0 253 -4 390 -10 390 -6 0
-10 -132 -10 -375 l0 -375 -1005 0 -1005 0 0 375 c0 243 -4 375 -10 375 -6 0
-10 -137 -10 -390z"/>
<path d="M1380 1030 c0 -6 93 -10 260 -10 167 0 260 4 260 10 0 6 -93 10 -260
10 -167 0 -260 -4 -260 -10z"/>
<path d="M1400 950 c0 -38 2 -40 30 -40 22 0 30 5 30 18 0 13 -2 14 -9 3 -9
-14 -31 -7 -31 10 0 6 5 7 10 4 6 -3 10 1 10 9 0 9 5 16 11 16 5 0 7 5 4 10
-3 6 -17 10 -31 10 -21 0 -24 -4 -24 -40z m40 26 c0 -3 -4 -8 -10 -11 -5 -3
-10 -1 -10 4 0 6 5 11 10 11 6 0 10 -2 10 -4z"/>
<path d="M1475 979 c-4 -5 1 -19 11 -30 9 -10 14 -22 10 -26 -4 -4 -11 -1 -16
7 -8 13 -10 12 -10 -2 0 -11 8 -18 20 -18 27 0 38 29 17 45 -10 7 -17 16 -17
20 0 4 7 2 15 -5 12 -10 15 -10 15 4 0 18 -35 22 -45 5z"/>
<path d="M1531 973 c0 -11 3 -13 6 -5 10 26 25 11 21 -23 -3 -24 0 -35 9 -35
8 0 13 13 13 35 0 28 3 33 17 28 11 -4 14 -3 9 5 -4 7 -23 12 -42 12 -26 0
-34 -4 -33 -17z"/>
<path d="M1653 973 c-4 -10 -1 -19 6 -21 9 -3 8 -9 -5 -23 -16 -18 -16 -19 10
-19 16 0 26 5 25 13 -4 32 2 40 14 17 17 -34 41 -32 45 4 5 37 -12 54 -34 35
-13 -11 -18 -11 -21 -1 -7 18 -33 15 -40 -5z m27 -3 c0 -5 -4 -10 -10 -10 -5
0 -10 5 -10 10 0 6 5 10 10 10 6 0 10 -4 10 -10z m60 -20 c0 -10 -4 -22 -10
-25 -6 -4 -10 7 -10 25 0 18 4 29 10 25 6 -3 10 -15 10 -25z"/>
<path d="M1779 988 c-7 -29 -1 -78 9 -78 15 0 17 66 2 75 -5 3 -10 5 -11 3z"/>
<path d="M1830 975 c-17 -21 -4 -67 18 -63 23 4 29 48 7 48 -9 0 -13 5 -10 10
4 6 11 8 16 5 5 -4 9 -1 9 4 0 16 -26 13 -40 -4z m17 -47 c-3 -8 -6 -5 -6 6
-1 11 2 17 5 13 3 -3 4 -12 1 -19z"/>
<path d="M1610 920 c0 -5 5 -10 10 -10 6 0 10 5 10 10 0 6 -4 10 -10 10 -5 0
-10 -4 -10 -10z"/>
</g>
</svg>
